# xmcd
#
# Track frame offsets: 
#        150
#        12211
#        24178
#        37569
#        51882
#        63276
#        75376
#        89905
#        103495
#        116121
#        130356
#        143122
#        156640
#        171021
#        185322
#        196093
#        207560
#        218991
#        231741
#        245148
#        258621
#        272835
#
# Disc length: 3782 seconds
#
# Revision: 1
# Processed by: cddbd v1.5.2PL0 Copyright (c) Steve Scherf et al.
# Submitted via: ExactAudioCopyFreeDBPlugin 1.0
#
DISCID=4b0ec416
DTITLE=Various Artist - Texas Hillbillies 1922-1937  CD B
DYEAR=2018
DGENRE=Texas Hillbilly
TTITLE0=WA Hinton - Leather Britches 
TTITLE1=Dick Devall - Tom Sherman's Barroom 
TTITLE2=HC Gilliland and Eck Robertson - Arkansaw Traveler 
TTITLE3=Smith's Garage Fiddle Band - Cuban Two Step Rag  
TTITLE4=Red Headed Fiddlers - Cheat 'Em 
TTITLE5=Red Headed Fiddlers - Far in the Mountain  
TTITLE6=East Texas Serenaders - Sweetest Flower  
TTITLE7=East Texas Serenaders - Combination Rag 
TTITLE8=MS Dillehay - Mexican Beans 
TTITLE9=MS Dillehay - Mother-in-Law  
TTITLE10=Cartwright Brothers - Utah Carrol  
TTITLE11=Cartwright Brothers - Get Along Little Dogies  
TTITLE12=Hugh Roden and His Texas Night Hawks - Possum Rag 
TTITLE13=Hugh Roden and His Texas Night Hawks - Crazy Rag  
TTITLE14=East Texas Serenaders - Del Rio Waltz 
TTITLE15=East Texas Serenaders - East Texas Drag  
TTITLE16=Oscar Harper's Texas String Band - Sally Johnson  
TTITLE17=Oscar Harper's Texas String Band - She Gave Up 
TTITLE18=Smith's Garage Fiddle Band - Beaumont Rag  
TTITLE19=Smith's Garage Fiddle Band - Twinkle Twinkle Little Star  
TTITLE20=Eck Robertson and Family - The Island Unknown (pt. 1) 
TTITLE21=Eck Robertson and Family - The Island Unknown (pt. 2)  
EXTD=
EXTT0=
EXTT1=
EXTT2=
EXTT3=
EXTT4=
EXTT5=
EXTT6=
EXTT7=
EXTT8=
EXTT9=
EXTT10=
EXTT11=
EXTT12=
EXTT13=
EXTT14=
EXTT15=
EXTT16=
EXTT17=
EXTT18=
EXTT19=
EXTT20=
EXTT21=
PLAYORDER=
